<svg xmlns="http://www.w3.org/2000/svg" width="25.604" height="22.22" viewBox="0 0 25.604 22.22">
  <g id="Group_2458" data-name="Group 2458" transform="translate(-29.024 -107.005)">
    <g id="Group_2457" data-name="Group 2457" transform="translate(3530.727 671.823)">
      <path id="Path_3468" data-name="Path 3468" d="M-3493.513-557.756l17.04,7.937-8.009,3.593-16.86-7.616Z" transform="translate(0 1.666)" fill="#fff" stroke="#202121" stroke-linecap="round" stroke-linejoin="round" stroke-width="0.72"/>
      <path id="Path_3469" data-name="Path 3469" d="M-3479.824-549.8l-8,3.593v-1.6l8-3.593Z" transform="translate(3.361 3.246)" fill="#fff" stroke="#202121" stroke-linecap="round" stroke-linejoin="round" stroke-width="0.72"/>
      <path id="Path_3470" data-name="Path 3470" d="M-3501.335-553.019l16.87,7.616V-547l-16.865-7.616Z" transform="translate(0.002 2.445)" fill="#fff" stroke="#202121" stroke-linecap="round" stroke-linejoin="round" stroke-width="0.72"/>
      <path id="Path_3471" data-name="Path 3471" d="M-3496.406-561.084s-3.374.552-3.826,2.395v2.018s2.435-1.634,3.826-1.634Z" transform="translate(0.276 0.839)" fill="#fff" stroke="#202121" stroke-linecap="round" stroke-linejoin="round" stroke-width="0.72"/>
      <g id="Group_2086" data-name="Group 2086" transform="translate(-3497.532 -564.458)">
        <path id="Path_3472" data-name="Path 3472" d="M-3490.648-558.56l-7.643-3.444v9.071l7.643,3.443Z" transform="translate(3498.291 565.068)" fill="#fff" stroke="#202121" stroke-linecap="round" stroke-linejoin="round" stroke-width="0.72"/>
        <path id="Path_3473" data-name="Path 3473" d="M-3492.17-558.636l6.8-3.064v9.071l-6.8,3.064Z" transform="translate(3499.812 565.144)" fill="#fff" stroke="#202121" stroke-linecap="round" stroke-linejoin="round" stroke-width="0.72"/>
        <path id="Path_3474" data-name="Path 3474" d="M-3483.847-561.015l-7.643-3.443-6.8,3.064,7.643,3.444Z" transform="translate(3498.291 564.458)" fill="#fff" stroke="#202121" stroke-linecap="round" stroke-linejoin="round" stroke-width="0.72"/>
      </g>
      <path id="Path_3475" data-name="Path 3475" d="M-3496.562-556.987l-.018-1.34,2.92,2.939-2.828,2.964-.022-1.736a10.739,10.739,0,0,1-3.722-1.812v-3.2C-3499.962-558.192-3497.849-557.421-3496.562-556.987Z" transform="translate(0.276 1.316)" fill="#fff" stroke="#202121" stroke-linecap="round" stroke-linejoin="round" stroke-width="0.72"/>
      <g id="Group_2087" data-name="Group 2087" transform="translate(-3487.933 -553.629)">
        <path id="Path_3476" data-name="Path 3476" d="M-3487-552.862l-3.6-1.623v3.957l3.6,1.623Z" transform="translate(3490.603 556.108)" fill="#fff" stroke="#202121" stroke-linecap="round" stroke-linejoin="round" stroke-width="0.72"/>
        <path id="Path_3477" data-name="Path 3477" d="M-3487.717-552.862l3.6-1.623v3.957l-3.6,1.623Z" transform="translate(3491.32 556.108)" fill="#fff" stroke="#202121" stroke-linecap="round" stroke-linejoin="round" stroke-width="0.72"/>
        <path id="Path_3478" data-name="Path 3478" d="M-3483.4-554.162l-3.6-1.623-3.6,1.623,3.6,1.623Z" transform="translate(3490.603 555.785)" fill="#fff" stroke="#202121" stroke-linecap="round" stroke-linejoin="round" stroke-width="0.72"/>
      </g>
      <g id="Group_2088" data-name="Group 2088" transform="translate(-3487.933 -559.301)">
        <path id="Path_3479" data-name="Path 3479" d="M-3487-557.4l-3.6-1.623v3.957l3.6,1.623Z" transform="translate(3490.603 560.651)" fill="#fff" stroke="#202121" stroke-linecap="round" stroke-linejoin="round" stroke-width="0.72"/>
        <path id="Path_3480" data-name="Path 3480" d="M-3487.717-557.4l3.6-1.623v3.957l-3.6,1.623Z" transform="translate(3491.32 560.651)" fill="#fff" stroke="#202121" stroke-linecap="round" stroke-linejoin="round" stroke-width="0.72"/>
        <path id="Path_3481" data-name="Path 3481" d="M-3483.4-558.7l-3.6-1.623-3.6,1.623,3.6,1.623Z" transform="translate(3490.603 560.328)" fill="#fff" stroke="#202121" stroke-linecap="round" stroke-linejoin="round" stroke-width="0.72"/>
      </g>
    </g>
  </g>
</svg>
