<svg xmlns="http://www.w3.org/2000/svg" width="23.847" height="15.403" viewBox="0 0 23.847 15.403">
  <g id="Group_14653" data-name="Group 14653" transform="translate(-33.892 -313.65)">
    <path id="Path_208315" data-name="Path 208315" d="M40.447,191.534H23.691a.9.9,0,0,1-.92-.88V182.3a.9.9,0,0,1,.88-.92h16.8a.9.9,0,0,1,.92.88v8.351a.9.9,0,0,1-.88.92Z" transform="translate(11.746 136.893)" fill="none" stroke="#de1020" stroke-linecap="round" stroke-linejoin="round" stroke-width="1.25"/>
    <line id="Line_22908" data-name="Line 22908" y1="1.861" transform="translate(38.43 324.281)" fill="none" stroke="#de1020" stroke-linecap="round" stroke-linejoin="round" stroke-width="1.25"/>
    <line id="Line_22909" data-name="Line 22909" y1="4.861" transform="translate(41.003 321.281)" fill="none" stroke="#de1020" stroke-linecap="round" stroke-linejoin="round" stroke-width="1.25"/>
    <line id="Line_22910" data-name="Line 22910" y1="3.861" transform="translate(43.576 322.281)" fill="none" stroke="#de1020" stroke-linecap="round" stroke-linejoin="round" stroke-width="1.25"/>
    <line id="Line_22911" data-name="Line 22911" y1="5.861" transform="translate(46.149 320.281)" fill="none" stroke="#de1020" stroke-linecap="round" stroke-linejoin="round" stroke-width="1.25"/>
    <line id="Line_22912" data-name="Line 22912" y1="2.861" transform="translate(48.725 323.281)" fill="none" stroke="#de1020" stroke-linecap="round" stroke-linejoin="round" stroke-width="1.25"/>
    <path id="Path_208316" data-name="Path 208316" d="M25.691,179.382H42.447a.9.9,0,0,1,.92.88v8.351" transform="translate(11.746 136.893)" fill="none" stroke="#de1020" stroke-linecap="round" stroke-linejoin="round" stroke-width="1.25"/>
    <path id="Path_208317" data-name="Path 208317" d="M27.691,177.382H44.447a.9.9,0,0,1,.92.88v8.351" transform="translate(11.746 136.893)" fill="none" stroke="#de1020" stroke-linecap="round" stroke-linejoin="round" stroke-width="1.25"/>
  </g>
</svg>
