<svg xmlns="http://www.w3.org/2000/svg" width="32.164" height="14.721" viewBox="0 0 32.164 14.721">
  <g id="Group_14654" data-name="Group 14654" transform="translate(-82.589 -312.825)">
    <path id="Path_208312" data-name="Path 208312" d="M89.17,188.224H72.413a.9.9,0,0,1-.92-.88v-8.351a.9.9,0,0,1,.88-.92h16.8a.9.9,0,0,1,.92.88V187.3a.9.9,0,0,1-.88.92Z" transform="translate(11.746 136.893)" fill="none" stroke="#575757" stroke-linecap="round" stroke-linejoin="round" stroke-width="1.3"/>
    <line id="Line_22901" data-name="Line 22901" y1="1.861" transform="translate(87.151 320.972)" fill="none" stroke="#575757" stroke-linecap="round" stroke-linejoin="round" stroke-width="1.3"/>
    <line id="Line_22902" data-name="Line 22902" y1="4.861" transform="translate(89.726 317.972)" fill="none" stroke="#575757" stroke-linecap="round" stroke-linejoin="round" stroke-width="1.3"/>
    <line id="Line_22903" data-name="Line 22903" y1="3.861" transform="translate(92.3 318.972)" fill="none" stroke="#575757" stroke-linecap="round" stroke-linejoin="round" stroke-width="1.3"/>
    <line id="Line_22904" data-name="Line 22904" y1="5.861" transform="translate(94.873 316.972)" fill="none" stroke="#575757" stroke-linecap="round" stroke-linejoin="round" stroke-width="1.3"/>
    <line id="Line_22905" data-name="Line 22905" y1="2.861" transform="translate(97.446 319.972)" fill="none" stroke="#575757" stroke-linecap="round" stroke-linejoin="round" stroke-width="1.3"/>
    <path id="Path_208313" data-name="Path 208313" d="M101.955,181H94.666a.391.391,0,0,1-.4-.382v-3.638a.391.391,0,0,1,.382-.4h7.307a.391.391,0,0,1,.4.382V180.6a.391.391,0,0,1-.377.4Z" transform="translate(11.746 136.893)" fill="none" stroke="#575757" stroke-linecap="round" stroke-linejoin="round" stroke-width="1.3"/>
    <path id="Path_208314" data-name="Path 208314" d="M101.955,190H94.666a.391.391,0,0,1-.4-.382v-3.638a.391.391,0,0,1,.382-.4h7.307a.391.391,0,0,1,.4.382V189.6a.391.391,0,0,1-.377.4Z" transform="translate(11.746 136.893)" fill="none" stroke="#575757" stroke-linecap="round" stroke-linejoin="round" stroke-width="1.3"/>
    <line id="Line_22906" data-name="Line 22906" y1="2.076" x2="4.052" transform="translate(101.85 315.789)" fill="none" stroke="#575757" stroke-linecap="round" stroke-linejoin="round" stroke-width="1.3"/>
    <line id="Line_22907" data-name="Line 22907" x1="4.052" y1="1.779" transform="translate(101.85 323.104)" fill="none" stroke="#575757" stroke-linecap="round" stroke-linejoin="round" stroke-width="1.3"/>
  </g>
</svg>
