<svg xmlns="http://www.w3.org/2000/svg" width="27.497" height="26.379" viewBox="0 0 27.497 26.379">
  <g id="Group_13712" data-name="Group 13712" transform="translate(-29 -562.722)">
    <path id="Path_208339" data-name="Path 208339" d="M13.761,75.711l6.368-9.989L26.5,75.711Z" transform="translate(29 498)" fill="#fff" stroke="#969695" stroke-width="1"/>
    <path id="Path_208340" data-name="Path 208340" d="M13.761,75.711l6.368-9.989L26.5,75.711Z" transform="translate(29 498)" fill="none" stroke="#969695" stroke-linejoin="round" stroke-width="2"/>
    <path id="Path_208341" data-name="Path 208341" d="M13.17,71.974a5.592,5.592,0,1,1-5.592,5.592,5.592,5.592,0,0,1,5.592-5.592" transform="translate(29 498)" fill="#fff" stroke="#969695" stroke-width="1"/>
    <path id="Path_208342" data-name="Path 208342" d="M13.17,71.974a5.592,5.592,0,1,1-5.592,5.592A5.592,5.592,0,0,1,13.17,71.974Z" transform="translate(29 498)" fill="none" stroke="#969695" stroke-linejoin="round" stroke-width="2"/>
    <rect id="Rectangle_4257" data-name="Rectangle 4257" width="9.991" height="9.774" transform="translate(30 578.327)" fill="#fff" stroke="#969695" stroke-width="1"/>
    <rect id="Rectangle_4258" data-name="Rectangle 4258" width="9.991" height="9.774" transform="translate(30 578.327)" fill="none" stroke="#969695" stroke-linejoin="round" stroke-width="2"/>
  </g>
</svg>
