<svg xmlns="http://www.w3.org/2000/svg" width="48.47" height="51.135" viewBox="0 0 48.47 51.135">
  <g id="Capa_1" data-name="Capa 1" transform="translate(3453.613 426.488)">
    <g id="Group_2083" data-name="Group 2083" transform="translate(-3453.28 -426.116)">
      <g id="Group_2082" data-name="Group 2082">
        <path id="Path_3465" data-name="Path 3465" d="M-3414.39-407.841l8.435-5.184a.793.793,0,0,0,.351-1.142,69.248,69.248,0,0,0-6.326-8.347c-2.636-2.548-10.016-3.6-10.016-3.6s-.527,2.636-7.468,3.075c-6.941-.439-7.468-3.075-7.468-3.075s-7.38,1.054-9.928,3.6c-2.109,2.109-4.481,5.711-6.326,8.259a.728.728,0,0,0,.351,1.142l8.435,5.184" transform="translate(3453.28 426.116)" fill="#fff" stroke="#59595b" stroke-width="0.662"/>
        <path id="Path_3466" data-name="Path 3466" d="M-3412.871-412.916c-1.055,12.828.088,22.844,1.582,35.671h0s-4.129,3.163-17.133,3.163-16.694-3.163-16.694-3.163h0c1.318-12.828,2.373-22.844,1.143-35.671" transform="translate(3452.289 424.514)" fill="#fff" stroke="#59595b" stroke-width="0.662"/>
      </g>
      <line id="Line_5282" data-name="Line 5282" x2="14.936" transform="translate(16.398 0)" fill="none" stroke="#59595b" stroke-width="0.662"/>
    </g>
  </g>
</svg>
