<svg xmlns="http://www.w3.org/2000/svg" width="18.788" height="13.819" viewBox="0 0 18.788 13.819">
  <g id="Group_13443" data-name="Group 13443" transform="translate(3363.181 562.652)">
    <path id="Path_3482" data-name="Path 3482" d="M-3346.45-556.611v6.088h-15.079V-556.6" transform="translate(0.276 1.329)" fill="none" stroke="#000" stroke-linecap="round" stroke-linejoin="round" stroke-width="0.72"/>
    <path id="Path_3483" data-name="Path 3483" d="M-3359.226-550.9v-4.452h2.993v4.452" transform="translate(0.818 1.624)" fill="none" stroke="#000" stroke-linecap="round" stroke-linejoin="round" stroke-width="0.72"/>
    <path id="Path_3484" data-name="Path 3484" d="M-3362.7-556.666l2.607-5.592h12.775l2.453,5.592" transform="translate(0)" fill="none" stroke="#000" stroke-linecap="round" stroke-linejoin="round" stroke-width="0.72"/>
    <line id="Line_5285" data-name="Line 5285" x2="0.567" y2="5.592" transform="translate(-3351.407 -562.258)" fill="none" stroke="#000" stroke-linecap="round" stroke-linejoin="round" stroke-width="0.72"/>
    <line id="Line_5286" data-name="Line 5286" x1="0.57" y2="5.592" transform="translate(-3356.758 -562.258)" fill="none" stroke="#000" stroke-linecap="round" stroke-linejoin="round" stroke-width="0.72"/>
    <path id="Path_3485" data-name="Path 3485" d="M-3351.939-557.731c0,.771-1.344,1.395-3,1.395s-2.948-.624-2.948-1.395" transform="translate(1.132 1.065)" fill="none" stroke="#000" stroke-linecap="round" stroke-linejoin="round" stroke-width="0.72"/>
    <path id="Path_3486" data-name="Path 3486" d="M-3356.757-557.731c0,.771-1.331,1.395-2.972,1.395s-2.974-.624-2.974-1.395" transform="translate(0 1.065)" fill="none" stroke="#000" stroke-linecap="round" stroke-linejoin="round" stroke-width="0.72"/>
    <path id="Path_3487" data-name="Path 3487" d="M-3347.115-557.731c0,.771-1.352,1.395-3.018,1.395s-3.018-.624-3.018-1.395" transform="translate(2.247 1.065)" fill="none" stroke="#000" stroke-linecap="round" stroke-linejoin="round" stroke-width="0.72"/>
    <rect id="Rectangle_1413" data-name="Rectangle 1413" width="3.614" height="2.952" transform="translate(-3352.239 -553.812)" fill="none" stroke="#000" stroke-linecap="round" stroke-linejoin="round" stroke-width="0.72"/>
  </g>
</svg>
