<svg xmlns="http://www.w3.org/2000/svg" width="22.44" height="23.685" viewBox="0 0 22.44 23.685">
  <g id="Group_14319" data-name="Group 14319" transform="translate(-1.382 164)">
    <path id="Path_208344" data-name="Path 208344" d="M22.822,11.2A10.22,10.22,0,1,1,12.584,1H12.6A10.22,10.22,0,0,1,22.822,11.2Z" transform="translate(0 -164)" fill="none" stroke="#999" stroke-linecap="round" stroke-linejoin="round" stroke-width="2" opacity="0.4"/>
    <path id="Path_208345" data-name="Path 208345" d="M17.347,11.2a4.745,4.745,0,1,1-4.764-4.725H12.6a4.725,4.725,0,0,1,4.745,4.706Z" transform="translate(0 -164)" fill="none" stroke="#999" stroke-linecap="round" stroke-linejoin="round" stroke-width="2" opacity="0.4"/>
    <path id="Path_208346" data-name="Path 208346" d="M4.88,6.474a1.236,1.236,0,1,1,0-.039Z" transform="translate(0 -164)" fill="none" stroke="#999" stroke-linecap="round" stroke-linejoin="round" stroke-width="2"/>
    <path id="Path_208347" data-name="Path 208347" d="M21.823,4.784a1.248,1.248,0,1,1-1.249-1.249A1.249,1.249,0,0,1,21.823,4.784Z" transform="translate(0 -164)" fill="none" stroke="#999" stroke-linecap="round" stroke-linejoin="round" stroke-width="2"/>
    <line id="Line_22939" data-name="Line 22939" x2="9.124" y2="9.144" transform="translate(12.698 -152.8)" fill="none" stroke="#999" stroke-linecap="round" stroke-linejoin="round" stroke-width="2"/>
    <path id="Path_208348" data-name="Path 208348" d="M4.88,6.474a1.236,1.236,0,1,1,0-.039Z" transform="translate(10.315 -149)" fill="none" stroke="#999" stroke-linecap="round" stroke-linejoin="round" stroke-width="2"/>
  </g>
</svg>
